<?xml version="1.0" standalone="no"?>
<!DOCTYPE svg PUBLIC "-//W3C//DTD SVG 20010904//EN"
 "http://www.w3.org/TR/2001/REC-SVG-20010904/DTD/svg10.dtd">
<svg version="1.0" xmlns="http://www.w3.org/2000/svg"
 width="700.000000pt" height="700.000000pt" viewBox="0 0 700.000000 700.000000"
 preserveAspectRatio="xMidYMid meet">
<metadata>
Created by potrace 1.14, written by Peter Selinger 2001-2017
</metadata>
<g transform="translate(0.000000,700.000000) scale(0.100000,-0.100000)"
fill="#000000" stroke="none">
<path d="M231 6988 c-79 -22 -148 -84 -188 -167 l-27 -56 0 -3025 c0 -2865 1
-3028 18 -3077 23 -69 91 -144 158 -174 l53 -24 2470 0 c1359 0 2495 3 2525 7
192 23 424 104 590 206 l34 21 323 -322 c219 -218 338 -329 369 -345 64 -33
154 -39 222 -15 170 59 250 241 176 403 -21 46 -79 109 -347 378 l-322 322 19
33 c106 178 172 358 203 552 12 76 8 392 -5 455 -7 30 -14 64 -17 75 -55 257
-209 531 -402 715 -130 124 -205 179 -355 259 -78 41 -301 121 -338 121 -11 0
-20 6 -21 13 -1 6 -2 289 -3 627 l-1 616 -32 64 c-30 59 -139 171 -1155 1186
-1044 1043 -1127 1123 -1178 1142 -55 21 -62 21 -1395 21 -828 -1 -1353 -5
-1374 -11z m2361 -1563 l3 -980 30 -54 c38 -68 103 -125 168 -147 48 -16 129
-17 1015 -18 l962 0 -2 -444 -3 -445 -83 -23 c-471 -128 -845 -489 -998 -964
l-34 -105 -1008 0 c-1004 -1 -1007 -1 -1054 -22 -239 -108 -244 -436 -8 -547
45 -21 49 -21 1052 -24 l1008 -2 6 -28 c41 -185 108 -347 202 -491 20 -31 37
-60 37 -65 0 -9 -3234 -17 -3262 -8 -10 3 -13 546 -13 2671 0 1467 2 2670 4
2672 2 2 448 4 990 4 l985 1 3 -981z m1748 -597 c0 -5 -259 -8 -575 -8 -453 0
-575 3 -576 13 -3 45 -4 1134 -1 1140 4 9 1151 -1132 1152 -1145z m844 -2063
c78 -8 200 -47 283 -91 518 -275 616 -979 193 -1378 -171 -161 -369 -238 -610
-238 -313 0 -632 210 -760 498 -37 84 -41 94 -67 204 -3 14 -7 72 -9 130 -3
112 12 213 45 309 108 310 402 541 720 568 36 3 67 7 69 8 3 2 32 0 136 -10z"/>
<path d="M1656 3428 c-207 -29 -318 -268 -207 -448 39 -63 122 -121 196 -134
38 -7 1261 -8 1297 -1 113 22 203 106 232 217 37 141 -27 277 -161 343 l-58
28 -626 1 c-344 1 -647 -2 -673 -6z"/>
</g>
</svg>
